{
    "asset" : {
        "generator" : "Khronos glTF Blender I/O v1.4.40",
        "version" : "2.0"
    },
    "scene" : 0,
    "scenes" : [
        {
            "name" : "Scene",
            "nodes" : [
                0,
                1,
                2,
                3,
                4
            ]
        }
    ],
    "nodes" : [
        {
            "mesh" : 0,
            "name" : "Cube",
            "rotation" : [
                -0.0638117790222168,
                0,
                0,
                0.9979619383811951
            ]
        },
        {
            "name" : "Light",
            "rotation" : [
                0.16907575726509094,
                0.7558803558349609,
                -0.27217137813568115,
                0.570947527885437
            ],
            "translation" : [
                -5.1885576248168945,
                1.1282916069030762,
                11.232029914855957
            ]
        },
        {
            "name" : "Camera",
            "rotation" : [
                0.5503572225570679,
                0.24875764548778534,
                -0.17612795531749725,
                0.7773067355155945
            ],
            "translation" : [
                16.305688858032227,
                9.26500129699707,
                21.315692901611328
            ]
        },
        {
            "name" : "Empty",
            "rotation" : [
                0.7071068286895752,
                0,
                0,
                0.7071067094802856
            ]
        },
        {
            "mesh" : 1,
            "name" : "Plane",
            "rotation" : [
                0.7011632919311523,
                0,
                0,
                0.7130007147789001
            ],
            "translation" : [
                0,
                -1.1027283668518066,
                0
            ]
        }
    ],
    "materials" : [
        {
            "doubleSided" : true,
            "name" : "Material",
            "pbrMetallicRoughness" : {
                "baseColorTexture" : {
                    "index" : 0,
                    "texCoord" : 0
                },
                "metallicFactor" : 0.5,
                "roughnessFactor" : 0.4000000059604645
            }
        },
        {
            "doubleSided" : true,
            "name" : "Material.001",
            "pbrMetallicRoughness" : {
                "baseColorFactor" : [
                    0.6932899355888367,
                    0.6440014839172363,
                    0.6638156771659851,
                    1
                ],
                "metallicFactor" : 0,
                "roughnessFactor" : 0.4920634925365448
            }
        }
    ],
    "meshes" : [
        {
            "name" : "Cube",
            "primitives" : [
                {
                    "attributes" : {
                        "POSITION" : 0,
                        "NORMAL" : 1,
                        "TEXCOORD_0" : 2
                    },
                    "indices" : 3,
                    "material" : 0
                }
            ]
        },
        {
            "name" : "Plane",
            "primitives" : [
                {
                    "attributes" : {
                        "POSITION" : 4,
                        "NORMAL" : 5,
                        "TEXCOORD_0" : 6
                    },
                    "indices" : 7,
                    "material" : 1
                }
            ]
        }
    ],
    "textures" : [
        {
            "sampler" : 0,
            "source" : 0
        }
    ],
    "images" : [
        {
            "bufferView" : 4,
            "mimeType" : "image/jpeg",
            "name" : "pc-uv@2x@2x"
        }
    ],
    "accessors" : [
        {
            "bufferView" : 0,
            "componentType" : 5126,
            "count" : 456,
            "max" : [
                2.4996609687805176,
                1.9930416345596313,
                0.12349747866392136
            ],
            "min" : [
                -2.7003366947174072,
                -1.1896450519561768,
                -0.12349747866392136
            ],
            "type" : "VEC3"
        },
        {
            "bufferView" : 1,
            "componentType" : 5126,
            "count" : 456,
            "type" : "VEC3"
        },
        {
            "bufferView" : 2,
            "componentType" : 5126,
            "count" : 456,
            "type" : "VEC2"
        },
        {
            "bufferView" : 3,
            "componentType" : 5123,
            "count" : 2148,
            "type" : "SCALAR"
        },
        {
            "bufferView" : 5,
            "componentType" : 5126,
            "count" : 501,
            "max" : [
                0.6109208464622498,
                0.6021285057067871,
                0.8917334079742432
            ],
            "min" : [
                -0.8759073615074158,
                -0.7867636680603027,
                -1.5029842853546143
            ],
            "type" : "VEC3"
        },
        {
            "bufferView" : 6,
            "componentType" : 5126,
            "count" : 501,
            "type" : "VEC3"
        },
        {
            "bufferView" : 7,
            "componentType" : 5126,
            "count" : 501,
            "type" : "VEC2"
        },
        {
            "bufferView" : 8,
            "componentType" : 5123,
            "count" : 2484,
            "type" : "SCALAR"
        }
    ],
    "bufferViews" : [
        {
            "buffer" : 0,
            "byteLength" : 5472,
            "byteOffset" : 0
        },
        {
            "buffer" : 0,
            "byteLength" : 5472,
            "byteOffset" : 5472
        },
        {
            "buffer" : 0,
            "byteLength" : 3648,
            "byteOffset" : 10944
        },
        {
            "buffer" : 0,
            "byteLength" : 4296,
            "byteOffset" : 14592
        },
        {
            "buffer" : 0,
            "byteLength" : 515265,
            "byteOffset" : 18888
        },
        {
            "buffer" : 0,
            "byteLength" : 6012,
            "byteOffset" : 534156
        },
        {
            "buffer" : 0,
            "byteLength" : 6012,
            "byteOffset" : 540168
        },
        {
            "buffer" : 0,
            "byteLength" : 4008,
            "byteOffset" : 546180
        },
        {
            "buffer" : 0,
            "byteLength" : 4968,
            "byteOffset" : 550188
        }
    ],
    "samplers" : [
        {
            "magFilter" : 9729,
            "minFilter" : 9986
        }
    ],
    "buffers" : [
        {
            "byteLength" : 555156,
            "uri" : "data:application/octet-stream;base64,"
        }
    ]
}
