{
    "asset" : {
        "generator" : "Khronos glTF Blender I/O v1.4.40",
        "version" : "2.0"
    },
    "scene" : 0,
    "scenes" : [
        {
            "name" : "Scene",
            "nodes" : [
                0,
                1
            ]
        }
    ],
    "nodes" : [
        {
            "mesh" : 0,
            "name" : "tablet"
        },
        {
            "mesh" : 1,
            "name" : "phone",
            "rotation" : [
                0,
                0,
                0.9999569654464722,
                0.00928825419396162
            ],
            "translation" : [
                -2.524679183959961,
                -0.2409042865037918,
                0.6040091514587402
            ]
        }
    ],
    "materials" : [
        {
            "doubleSided" : true,
            "name" : "Material",
            "pbrMetallicRoughness" : {
                "baseColorTexture" : {
                    "index" : 0,
                    "texCoord" : 0
                },
                "metallicFactor" : 0,
                "roughnessFactor" : 0.4000000059604645
            }
        },
        {
            "doubleSided" : true,
            "name" : "Material.001",
            "pbrMetallicRoughness" : {
                "baseColorTexture" : {
                    "index" : 1,
                    "texCoord" : 0
                },
                "metallicFactor" : 0,
                "roughnessFactor" : 0.4000000059604645
            }
        }
    ],
    "meshes" : [
        {
            "name" : "Cube",
            "primitives" : [
                {
                    "attributes" : {
                        "POSITION" : 0,
                        "NORMAL" : 1,
                        "TEXCOORD_0" : 2
                    },
                    "indices" : 3,
                    "material" : 0
                }
            ]
        },
        {
            "name" : "Cube.001",
            "primitives" : [
                {
                    "attributes" : {
                        "POSITION" : 4,
                        "NORMAL" : 5,
                        "TEXCOORD_0" : 6
                    },
                    "indices" : 3,
                    "material" : 1
                }
            ]
        }
    ],
    "textures" : [
        {
            "sampler" : 0,
            "source" : 0
        },
        {
            "sampler" : 0,
            "source" : 1
        }
    ],
    "images" : [
        {
            "bufferView" : 4,
            "mimeType" : "image/jpeg",
            "name" : "tablet-uv@2x"
        },
        {
            "bufferView" : 8,
            "mimeType" : "image/jpeg",
            "name" : "phone-uv@2x"
        }
    ],
    "accessors" : [
        {
            "bufferView" : 0,
            "componentType" : 5126,
            "count" : 1200,
            "max" : [
                2.4992992877960205,
                1.6631534099578857,
                0.11103307455778122
            ],
            "min" : [
                -2.4992992877960205,
                -1.6631534099578857,
                -0.11103308200836182
            ],
            "type" : "VEC3"
        },
        {
            "bufferView" : 1,
            "componentType" : 5126,
            "count" : 1200,
            "type" : "VEC3"
        },
        {
            "bufferView" : 2,
            "componentType" : 5126,
            "count" : 1200,
            "type" : "VEC2"
        },
        {
            "bufferView" : 3,
            "componentType" : 5123,
            "count" : 1908,
            "type" : "SCALAR"
        },
        {
            "bufferView" : 5,
            "componentType" : 5126,
            "count" : 1200,
            "max" : [
                0.702116847038269,
                1.4225155115127563,
                0.11734146624803543
            ],
            "min" : [
                -0.702116847038269,
                -1.4225155115127563,
                -0.11734145134687424
            ],
            "type" : "VEC3"
        },
        {
            "bufferView" : 6,
            "componentType" : 5126,
            "count" : 1200,
            "type" : "VEC3"
        },
        {
            "bufferView" : 7,
            "componentType" : 5126,
            "count" : 1200,
            "type" : "VEC2"
        }
    ],
    "bufferViews" : [
        {
            "buffer" : 0,
            "byteLength" : 14400,
            "byteOffset" : 0
        },
        {
            "buffer" : 0,
            "byteLength" : 14400,
            "byteOffset" : 14400
        },
        {
            "buffer" : 0,
            "byteLength" : 9600,
            "byteOffset" : 28800
        },
        {
            "buffer" : 0,
            "byteLength" : 3816,
            "byteOffset" : 38400
        },
        {
            "buffer" : 0,
            "byteLength" : 370067,
            "byteOffset" : 42216
        },
        {
            "buffer" : 0,
            "byteLength" : 14400,
            "byteOffset" : 412284
        },
        {
            "buffer" : 0,
            "byteLength" : 14400,
            "byteOffset" : 426684
        },
        {
            "buffer" : 0,
            "byteLength" : 9600,
            "byteOffset" : 441084
        },
        {
            "buffer" : 0,
            "byteLength" : 303928,
            "byteOffset" : 450684
        }
    ],
    "samplers" : [
        {
            "magFilter" : 9729,
            "minFilter" : 9986
        }
    ],
    "buffers" : [
        {
            "byteLength" : 754612,
            "uri" : "data:application/octet-stream;base64,"
        }
    ]
}
